<svg width="25" height="23" viewBox="0 0 25 23" fill="none" xmlns="http://www.w3.org/2000/svg">
<path d="M11.1723 11.3202L0.550609 3.6051C-0.183536 3.07185 -0.183536 2.20958 0.550609 1.682L2.31568 0.399936C3.04983 -0.133312 4.23696 -0.133312 4.96329 0.399936L12.4922 5.86857L20.0211 0.399936C20.7552 -0.133312 21.9424 -0.133312 22.6687 0.399936L24.4494 1.67633C25.1835 2.20958 25.1835 3.07185 24.4494 3.59943L13.8277 11.3145C13.0936 11.8534 11.9064 11.8534 11.1723 11.3202ZM13.8277 22.2121L24.4494 14.497C25.1835 13.9637 25.1835 13.1015 24.4494 12.5739L22.6843 11.2918C21.9502 10.7586 20.763 10.7586 20.0367 11.2918L12.5 16.7548L4.9711 11.2861C4.23696 10.7529 3.04983 10.7529 2.32349 11.2861L0.550609 12.5682C-0.183536 13.1015 -0.183536 13.9637 0.550609 14.4913L11.1723 22.2064C11.9064 22.7453 13.0936 22.7453 13.8277 22.2121Z" fill="#6961ff"/>
</svg>
