<svg width="860" height="184" viewBox="0 0 860 184" fill="none" xmlns="http://www.w3.org/2000/svg">
<path opacity="0.3" d="M723.983 49.8545H645.408V79.117H723.983V49.8545Z" fill="#6C63FF"/>
<path opacity="0.3" d="M854.581 0H776.006V29.2625H854.581V0Z" fill="#6C63FF"/>
<path opacity="0.3" d="M860 90.4971H781.425V119.76H860V90.4971Z" fill="#6C63FF"/>
<path opacity="0.3" d="M608.559 120.854H529.984V150.116H608.559V120.854Z" fill="#6C63FF"/>
<path d="M776.006 14.4468L723.984 63.8082L781.424 105.128" stroke="#3F3D56" stroke-miterlimit="10"/>
<path d="M645.408 63.8086L569.271 124.095" stroke="#3F3D56" stroke-miterlimit="10"/>
<path opacity="0.3" d="M194 80.0005H115.425V109.263H194V80.0005Z" fill="#6C63FF"/>
<path opacity="0.3" d="M324.597 30.146H246.022V59.4085H324.597V30.146Z" fill="#6C63FF"/>
<path opacity="0.3" d="M330.016 120.643H251.441V149.906H330.016V120.643Z" fill="#6C63FF"/>
<path opacity="0.3" d="M78.5752 154.24H0V183.503H78.5752V154.24Z" fill="#6C63FF"/>
<path d="M246.022 44.5925L194 93.954L251.441 135.274" stroke="#3F3D56" stroke-miterlimit="10"/>
<path d="M115.424 93.9543L39.2876 154.241" stroke="#3F3D56" stroke-miterlimit="10"/>
<path d="M330.016 135.274H380.092" stroke="#3F3D56" stroke-miterlimit="10"/>
<path d="M458.451 134.885H529.984" stroke="#3F3D56" stroke-miterlimit="10"/>
<path d="M378.682 134.884L324.597 44.5928" stroke="#3F3D56" stroke-miterlimit="10"/>
<path opacity="0.3" d="M458.726 119.331H380.151V148.593H458.726V119.331Z" fill="#6C63FF"/>
</svg>
