<svg width="30" height="30" viewBox="0 0 30 30" fill="none" xmlns="http://www.w3.org/2000/svg">
<path d="M10.3125 12.6564H19.6875C20.2055 12.6564 20.625 12.2368 20.625 11.7189V10.7814C20.625 10.2634 20.2055 9.84387 19.6875 9.84387H10.3125C9.79453 9.84387 9.375 10.2634 9.375 10.7814V11.7189C9.375 12.2368 9.79453 12.6564 10.3125 12.6564ZM9.375 17.3438C9.375 17.8618 9.79453 18.2813 10.3125 18.2813H19.6875C20.2055 18.2813 20.625 17.8618 20.625 17.3438V16.4063C20.625 15.8884 20.2055 15.4688 19.6875 15.4688H10.3125C9.79453 15.4688 9.375 15.8884 9.375 16.4063V17.3438ZM15 24.4412C14.0379 24.4412 13.0758 24.1448 12.2543 23.5512L0 14.6989V27.1875C0 28.7408 1.25918 30 2.8125 30H27.1875C28.7408 30 30 28.7408 30 27.1875V14.6989L17.7457 23.5512C16.9242 24.1442 15.9621 24.4412 15 24.4412ZM28.9225 9.54797C28.4039 9.14134 27.9123 8.75872 27.1875 8.21146V5.62515C27.1875 4.07184 25.9283 2.81266 24.375 2.81266H19.8311C19.6529 2.68376 19.4871 2.56306 19.3014 2.42829C18.3164 1.70935 16.3594 -0.0203269 15 0.000180782C13.6406 -0.0203269 11.6842 1.70935 10.6986 2.42829C10.5129 2.56306 10.3471 2.68376 10.1689 2.81266H5.625C4.07168 2.81266 2.8125 4.07184 2.8125 5.62515V8.21146C2.0877 8.75813 1.59609 9.14134 1.07754 9.54797C0.74189 9.81102 0.470458 10.1469 0.283778 10.5304C0.0970973 10.9138 5.77621e-05 11.3346 0 11.761L0 12.3851L5.625 16.4485V5.62515H24.375V16.4485L30 12.3851V11.761C30 10.8974 29.6027 10.0812 28.9225 9.54797V9.54797Z" fill="#6C6B7E"/>
</svg>
