<svg width="30" height="30" viewBox="0 0 30 30" fill="none" xmlns="http://www.w3.org/2000/svg">
<path d="M8.33333 26.25C7 26.25 5.66667 24.9375 5 24.375C1.66667 21.75 0.666667 20.8125 0 20.25V28.125C0 29.1604 0.746354 30 1.66667 30H15C15.9203 30 16.6667 29.1604 16.6667 28.125V20.25C16 20.8125 15 21.75 11.6667 24.375C11 24.9375 9.66667 26.25 8.33333 26.25ZM15 15H1.66667C0.746354 15 0 15.8396 0 16.875V17.8125C1.33333 18.9375 1.16667 18.9375 6 22.875C6.5 23.25 7.5 24.375 8.33333 24.375C9.16667 24.375 10.1667 23.25 10.6667 23.0625C15.5 19.125 15.3333 19.125 16.6667 18V16.875C16.6667 15.8396 15.9203 15 15 15ZM28.3333 9.375H11.6667C10.7464 9.375 10 10.2146 10 11.25V13.125H15C16.7297 13.125 18.1557 14.6145 18.3182 16.5129L18.3333 16.5V24.375H28.3333C29.2536 24.375 30 23.5354 30 22.5V11.25C30 10.2146 29.2536 9.375 28.3333 9.375ZM26.6667 16.875H23.3333V13.125H26.6667V16.875ZM8.33333 11.25C8.33333 9.18223 9.82865 7.5 11.6667 7.5H23.3333V1.875C23.3333 0.839648 22.587 0 21.6667 0H5C4.07969 0 3.33333 0.839648 3.33333 1.875V13.125H8.33333V11.25Z" fill="#6C6B7E"/>
</svg>
