<svg width="662" height="512" viewBox="0 0 662 512" fill="none" xmlns="http://www.w3.org/2000/svg">
<path opacity="0.3" d="M450.774 32.3179H403.479V51.2871H450.774V32.3179Z" fill="#6C63FF"/>
<path opacity="0.3" d="M529.382 0H482.087V18.9692H529.382V0Z" fill="#6C63FF"/>
<path opacity="0.3" d="M532.644 58.664H485.349V77.6332H532.644V58.664Z" fill="#6C63FF"/>
<path opacity="0.3" d="M381.3 80.4435H334.005V99.4126H381.3V80.4435Z" fill="#6C63FF"/>
<path opacity="0.3" d="M366.296 158.428H319.001V177.397H366.296V158.428Z" fill="#6C63FF"/>
<path opacity="0.3" d="M437.727 156.672H390.433V175.641H437.727V156.672Z" fill="#6C63FF"/>
<path d="M482.087 9.36496L450.775 41.3631L485.348 68.1487" stroke="#3F3D56" stroke-miterlimit="10"/>
<path d="M403.48 41.3634L357.652 80.4435" stroke="#3F3D56" stroke-miterlimit="10"/>
<path d="M342.649 158.413L357.652 99.4125L414.08 156.671" stroke="#3F3D56" stroke-miterlimit="10"/>
<path opacity="0.3" d="M131.774 51.8597H84.4786V70.8289H131.774V51.8597Z" fill="#6C63FF"/>
<path opacity="0.3" d="M210.381 19.5418H163.086V38.511H210.381V19.5418Z" fill="#6C63FF"/>
<path opacity="0.3" d="M213.643 78.2058H166.348V97.175H213.643V78.2058Z" fill="#6C63FF"/>
<path opacity="0.3" d="M62.2989 99.9853H15.0039V118.955H62.2989V99.9853Z" fill="#6C63FF"/>
<path opacity="0.3" d="M47.295 177.97H0V196.939H47.295V177.97Z" fill="#6C63FF"/>
<path opacity="0.3" d="M118.727 176.213H71.4318V195.183H118.727V176.213Z" fill="#6C63FF"/>
<path d="M163.086 28.9068L131.774 60.905L166.348 87.6905" stroke="#3F3D56" stroke-miterlimit="10"/>
<path d="M84.4786 60.9052L38.6514 99.9853" stroke="#3F3D56" stroke-miterlimit="10"/>
<path d="M23.6476 177.955L38.6512 118.954L95.0793 176.213" stroke="#3F3D56" stroke-miterlimit="10"/>
<path d="M213.643 87.6904H267.278" stroke="#3F3D56" stroke-miterlimit="10"/>
<path d="M298.807 77.9821H243.202V96.8935H298.807V77.9821Z" fill="#D0CDFC"/>
<path d="M298.879 87.4378H334.005" stroke="#3F3D56" stroke-miterlimit="10"/>
<path d="M242.935 87.4378L210.381 28.907" stroke="#3F3D56" stroke-miterlimit="10"/>
<path d="M404.458 512C546.695 512 662 484.341 662 450.223C662 416.104 546.695 388.445 404.458 388.445C262.221 388.445 146.916 416.104 146.916 450.223C146.916 484.341 262.221 512 404.458 512Z" fill="#F2F2F2"/>
<path d="M523.854 246.864L498.741 382.378H493.304L492.706 381.377L490.974 378.475L512.722 251.883L516.023 250.394L523.854 246.864Z" fill="#47465A"/>
<path opacity="0.1" d="M516.023 250.394L492.706 381.377L490.974 378.475L512.722 251.883L516.023 250.394Z" fill="black"/>
<path d="M561.655 431.454L555.198 433.695L553.629 434.242L551.557 429.223L516.023 254.649L519.718 253.757L527.479 251.883L561.655 431.454Z" fill="#47465A"/>
<path opacity="0.1" d="M555.198 433.695L553.629 434.242L551.557 429.223L516.023 254.649L519.718 253.757L555.198 433.695Z" fill="black"/>
<path d="M253.817 246.864L248.121 422.53L241.594 424.092L241.131 424.204L239.318 420.579L242.943 248.537L246.43 248.002L253.817 246.864Z" fill="#47465A"/>
<path opacity="0.1" d="M246.43 248.002L241.594 424.092L241.131 424.204L239.318 420.579L242.943 248.537L246.43 248.002Z" fill="black"/>
<path d="M287.734 484.711L280.981 485.966L280.225 486.105L278.154 481.365L245.273 251.883L246.221 251.573L251.228 249.931L287.734 484.711Z" fill="#47465A"/>
<path opacity="0.1" d="M280.981 485.966L280.225 486.105L278.154 481.365L245.273 251.883L246.221 251.573L280.981 485.966Z" fill="black"/>
<path d="M430.649 232.644L455.789 267.24C456.651 268.426 457.781 269.353 459.071 269.933C460.362 270.512 461.769 270.725 463.157 270.549L566.36 257.532C568.345 257.282 570.175 256.255 571.503 254.648C572.831 253.04 573.564 250.964 573.564 248.812V223.163L430.649 232.644Z" fill="#7A799C"/>
<path d="M515.311 238.22H522.301V249.086C522.301 249.828 522.028 250.539 521.541 251.064C521.053 251.589 520.393 251.883 519.704 251.883H517.908C517.219 251.883 516.559 251.589 516.072 251.064C515.585 250.539 515.311 249.828 515.311 249.086V238.22Z" fill="#47465A"/>
<path d="M245.273 254.672L270.413 289.268C271.275 290.454 272.405 291.381 273.696 291.961C274.986 292.54 276.393 292.753 277.782 292.577L380.984 279.56C382.969 279.31 384.799 278.283 386.127 276.676C387.455 275.068 388.188 272.992 388.188 270.84V245.191L245.273 254.672Z" fill="#7A799C"/>
<path d="M329.935 260.248H336.925V271.114C336.925 271.856 336.652 272.567 336.165 273.092C335.678 273.617 335.017 273.911 334.328 273.911H332.532C331.844 273.911 331.183 273.617 330.696 273.092C330.209 272.567 329.935 271.856 329.935 271.114V260.248H329.935Z" fill="#47465A"/>
<path d="M274.156 272.193L581.134 233.683C582.099 233.562 583.001 233.109 583.708 232.392C584.415 231.675 584.888 230.732 585.057 229.702C585.227 228.672 585.083 227.611 584.648 226.676C584.213 225.741 583.51 224.982 582.643 224.512L527.73 194.769C516.914 188.911 504.77 186.502 492.726 187.824L220 217.774C219.025 217.883 218.098 218.287 217.326 218.938C216.554 219.588 215.967 220.46 215.634 221.453C215.3 222.446 215.233 223.52 215.44 224.552C215.647 225.584 216.12 226.533 216.805 227.289L248.564 262.381C251.85 266.013 255.866 268.786 260.302 270.487C264.739 272.188 269.478 272.771 274.156 272.193Z" fill="#47465A"/>
<path d="M614.907 228.464L611.623 226.509C611.623 226.509 608.079 229.319 605.191 241.159C602.303 252.999 610.588 241.287 610.588 241.287L614.213 233.201L614.907 228.464Z" fill="#47465A"/>
<path d="M579.778 336.928C579.778 336.928 576.412 353.937 574.859 358.677C574.098 360.997 570.421 363.119 566.346 364.742C562.733 366.192 558.992 367.243 555.182 367.879C550.781 368.437 494.34 358.956 466.896 352.543C448.407 348.224 446.018 343.269 446.427 340.497C446.558 339.672 446.926 338.912 447.478 338.322C447.478 338.322 474.663 318.525 484.242 309.045C493.822 299.564 512.722 307.093 533.434 310.996C554.147 314.9 579.778 336.928 579.778 336.928Z" fill="#47465A"/>
<path d="M611.623 226.509C611.623 226.509 624.31 235.432 581.59 253.835C581.59 253.835 558.371 267.935 561.394 326.016C561.537 328.628 562.276 331.161 563.544 333.393C567.951 341.2 577.396 360.964 561.655 363.418V367.879C561.655 367.879 590.134 352.543 593.241 339.438C596.348 326.332 606.704 253.556 611.882 246.864C617.06 240.172 620.426 229.576 611.623 226.509Z" fill="#47465A"/>
<path opacity="0.1" d="M566.346 364.742C562.733 366.192 558.993 367.243 555.182 367.879C550.781 368.437 494.34 358.956 466.896 352.543C448.407 348.224 446.018 343.269 446.427 340.497C458.58 344.973 498.042 359.176 512.204 360.35C529.033 361.745 561.184 365.62 563.62 362.985C564.557 361.97 565.518 363.041 566.346 364.742Z" fill="black"/>
<path d="M418.48 480.807L443.076 359.793C443.076 359.793 447.478 346.966 457.575 347.524L466.896 352.543C466.896 352.543 451.361 348.639 447.996 361.466C444.63 374.292 423.141 480.807 423.141 480.807H418.48Z" fill="#47465A"/>
<path d="M477.511 425.598L487.349 351.706H491.751L481.653 425.598H477.511Z" fill="#47465A"/>
<path d="M571.752 497.816L562.432 382.378C562.432 382.378 562.432 372.619 567.092 367.879C571.752 363.139 586.797 349.617 586.797 349.617C586.797 349.617 590.652 348.639 593.759 358.12C596.866 367.6 618.355 462.404 618.355 462.404L614.212 464.356L587.545 355.053L569.163 373.735C569.163 373.735 565.538 380.705 567.351 387.119C569.163 393.532 575.895 497.816 575.895 497.816H571.752Z" fill="#47465A"/>
<path d="M543.014 365.091L566.315 372.34L571.493 367.042L558.03 365.091H543.014Z" fill="#47465A"/>
<path d="M335.866 161.57L339.644 222.605L422.234 213.962L418.948 154.296C418.904 153.497 418.712 152.716 418.383 151.998C418.055 151.28 417.596 150.64 417.034 150.116C416.472 149.592 415.819 149.194 415.112 148.946C414.405 148.698 413.659 148.605 412.919 148.672L340.958 155.191C339.502 155.322 338.153 156.065 337.2 157.258C336.248 158.451 335.768 159.999 335.866 161.57Z" fill="#7A799C"/>
<path d="M449.938 231.528L367.606 241.201L364.499 241.566L340.421 224.836V221.211L422.234 213.276L449.938 231.528Z" fill="#7A799C"/>
<path opacity="0.1" d="M367.605 241.201L364.499 241.566L340.421 224.836V221.591L367.605 241.201Z" fill="black"/>
<path d="M341.456 160.983L344.304 215.355L416.798 208.106L414.208 155.127L341.456 160.983Z" fill="#9493B6"/>
<path opacity="0.1" d="M384.693 230.413L393.496 236.826L420.163 234.037L411.101 227.903L384.693 230.413Z" fill="black"/>
<path d="M348.705 222.605L359.838 231.528L431.037 224.279L418.351 215.355L348.705 222.605Z" fill="#9493B6"/>
<path d="M527.609 140.209H475.051V196.813H527.609V140.209Z" fill="#FF6584"/>
<path opacity="0.1" d="M527.609 140.209H475.051V196.813H527.609V140.209Z" fill="black"/>
<path d="M493.151 166.404C493.151 166.404 500.566 188.03 493.151 192.023C485.737 196.015 519.719 192.023 519.719 192.023L529.296 183.705C529.296 183.705 507.671 177.051 510.76 161.746C513.849 146.442 493.151 166.404 493.151 166.404Z" fill="#FBBEBE"/>
<path opacity="0.1" d="M493.151 166.404C493.151 166.404 500.566 188.03 493.151 192.023C485.737 196.015 519.719 192.023 519.719 192.023L529.296 183.705C529.296 183.705 507.671 177.051 510.76 161.746C513.849 146.442 493.151 166.404 493.151 166.404Z" fill="black"/>
<path d="M432.293 383.328C432.293 383.328 460.096 425.582 455.463 437.226C450.829 448.871 453.3 456.191 444.032 460.183C434.765 464.175 432.293 471.495 440.325 471.162C448.357 470.83 458.861 468.501 460.405 465.506C461.95 462.512 465.657 448.206 470.909 446.209C476.161 444.213 486.046 436.561 478.941 427.245C471.836 417.929 453.933 383.616 455.316 380.145C456.698 376.674 432.293 383.328 432.293 383.328Z" fill="#FBBEBE"/>
<path d="M490.371 299.819C490.371 299.819 432.911 303.812 418.083 318.783C403.255 333.755 431.058 389.65 434.147 390.315C437.236 390.98 461.332 388.319 460.405 380.999C459.479 373.68 443.106 343.736 443.106 343.736C443.106 343.736 464.421 335.419 476.161 333.422C487.9 331.426 500.875 322.11 500.875 322.11L490.371 299.819Z" fill="#9493B6"/>
<path d="M464.112 290.503C464.112 290.503 465.039 327.434 473.689 328.764C482.339 330.095 473.689 300.485 473.689 300.485L473.38 289.173L464.112 290.503Z" fill="#FBBEBE"/>
<path d="M490.371 193.686C490.371 193.686 474.307 188.696 471.218 202.004C468.129 215.312 467.202 261.225 467.202 261.225L461.641 297.823C461.641 297.823 471.836 294.496 473.998 296.159L486.973 278.526L490.371 193.686Z" fill="#6C63FF"/>
<path opacity="0.1" d="M490.371 193.686C490.371 193.686 474.307 188.696 471.218 202.004C468.129 215.312 467.202 261.225 467.202 261.225L461.641 297.823C461.641 297.823 471.836 294.496 473.998 296.159L486.973 278.526L490.371 193.686Z" fill="black"/>
<path d="M512.321 390.413C512.321 390.413 523.117 413.272 529.604 412.939C536.092 412.606 542.27 408.281 545.36 421.922C548.449 435.563 544.742 431.903 548.449 439.888C552.156 447.873 552.774 461.847 545.669 465.174C538.563 468.501 532.076 468.833 531.767 465.174C531.458 461.514 537.945 461.514 530.531 448.538C523.117 435.563 507.362 411.941 500.875 409.612C494.387 407.283 512.321 390.413 512.321 390.413Z" fill="#FBBEBE"/>
<path d="M540.417 286.178C540.417 286.178 562.659 326.103 548.14 337.748C533.62 349.392 490.371 371.683 490.371 371.683C490.371 371.683 513.54 388.651 514.776 394.307C516.012 399.963 503.655 415.268 499.33 415.601C495.005 415.933 482.339 400.296 468.746 396.304C455.154 392.311 446.813 363.699 461.641 353.052C476.47 342.405 490.371 324.772 490.371 324.772L486.049 299.157L540.417 286.178Z" fill="#9493B6"/>
<path d="M521.136 153.036C521.136 167.185 507.679 178.881 494.542 178.881C488.233 178.881 482.182 176.182 477.721 171.377C473.261 166.573 470.754 160.057 470.754 153.262C470.754 146.468 473.261 139.952 477.721 135.148C482.182 130.343 488.233 127.644 494.542 127.644C507.679 127.644 521.136 138.887 521.136 153.036Z" fill="#FBBEBE"/>
<path d="M500.566 190.026C500.566 190.026 521.881 180.045 521.881 178.714C521.881 177.384 534.238 181.709 537.019 184.37C539.799 187.032 541.344 186.699 543.197 192.023C545.051 197.346 533.929 246.919 533.929 246.919C533.929 246.919 540.108 285.18 543.506 288.84C546.904 292.5 516.012 297.823 516.012 297.823C516.012 297.823 495.623 301.815 492.225 303.479C488.827 305.142 482.648 307.471 483.884 303.479C485.119 299.486 490.371 296.492 481.412 291.501C481.412 291.501 484.502 275.199 481.412 267.879C478.323 260.56 464.113 233.943 475.543 214.647C486.973 195.35 492.225 188.363 492.225 188.363C492.225 188.363 496.241 192.023 500.566 190.026Z" fill="#6C63FF"/>
<path d="M507.362 280.855C507.362 280.855 483.266 292.365 476.006 293.43C468.746 294.496 446.813 300.485 458.861 305.808C470.909 311.131 489.135 303.146 489.135 303.146L514.776 291.502L507.362 280.855Z" fill="#FBBEBE"/>
<path opacity="0.1" d="M533.305 189.006C533.305 189.006 542.203 184.37 544.674 200.673C547.145 216.975 555.795 268.545 544.674 276.197C533.553 283.849 507.912 296.159 507.912 296.159C507.912 296.159 492.775 285.18 499.88 281.188C506.985 277.195 523.976 265.883 526.447 261.891C528.919 257.898 531.416 213.334 527.091 206.015C522.766 198.695 533.305 189.006 533.305 189.006Z" fill="black"/>
<path d="M532.694 185.036C532.694 185.036 545.051 184.37 547.522 200.673C549.993 216.975 558.643 268.545 547.522 276.197C536.401 283.849 510.76 296.159 510.76 296.159C510.76 296.159 495.623 285.18 502.728 281.188C509.833 277.195 526.824 265.883 529.296 261.891C531.767 257.898 527.442 216.31 523.117 208.991C518.792 201.671 532.694 185.036 532.694 185.036Z" fill="#6C63FF"/>
<path d="M488.682 110.137C484.89 110.693 480.822 112.187 478.914 115.76C477.98 117.509 477.678 119.56 476.959 121.422C474.973 126.562 470.152 129.631 466.672 133.745C462.136 139.108 459.883 147.189 462.558 153.846C463.594 156.424 465.277 158.632 466.552 161.082C470.112 167.918 470.302 176.127 470.403 183.963L470.602 199.37C470.632 201.723 470.657 204.123 469.999 206.367C469.341 208.61 467.872 210.712 465.789 211.42C468.088 212.278 470.587 212.285 472.889 211.438C475.191 210.591 477.164 208.94 478.495 206.747C478.78 208.688 478.618 210.674 478.023 212.531C477.429 214.388 476.421 216.06 475.087 217.4C480.751 215.964 485.5 211.528 488.492 206.153C491.485 200.779 492.872 194.527 493.494 188.297C493.823 185.002 493.939 181.594 492.972 178.447C492.291 176.231 491.103 174.244 489.976 172.251C487.07 167.111 484.452 161.644 483.516 155.711C482.579 149.778 483.52 143.268 487.097 138.645C488.47 136.858 490.199 135.429 492.157 134.462C494.114 133.495 496.249 133.017 498.402 133.062C500.555 133.152 502.65 133.835 504.487 135.046C506.325 136.258 507.843 137.957 508.896 139.981C509.722 141.656 510.898 143.927 512.573 143.338C512.883 143.196 513.186 143.036 513.48 142.859C515.347 141.943 517.468 143.749 518.292 145.773C520.889 152.157 516.104 159.125 515.609 166.074C515.149 172.539 518.496 178.635 522.496 183.481C529.405 191.815 538.431 197.787 548.456 200.658C546.989 200.26 545.673 199.379 544.691 198.139C548.767 198.314 552.848 197.946 556.84 197.042C552.493 193.514 548.116 189.956 544.487 185.587C540.858 181.219 537.984 175.932 537.201 170.132C536.151 162.346 538.843 153.916 535.765 146.782C532.951 140.259 525.971 136.615 523.423 129.967C520.834 123.215 519.155 117.348 512.3 114.409C504.819 111.2 496.766 108.952 488.682 110.137Z" fill="#BEB19C"/>
</svg>
