<svg width="375" height="411" viewBox="0 0 375 411" fill="none" xmlns="http://www.w3.org/2000/svg">
<path opacity="0.3" d="M262.682 25.9427H222.531V41.1699H262.682V25.9427Z" fill="#6C63FF"/>
<path opacity="0.3" d="M329.415 0H289.264V15.2272H329.415V0Z" fill="#6C63FF"/>
<path opacity="0.3" d="M332.184 47.0916H292.033V62.3189H332.184V47.0916Z" fill="#6C63FF"/>
<path opacity="0.3" d="M203.702 64.5747H163.551V79.8019H203.702V64.5747Z" fill="#6C63FF"/>
<path opacity="0.3" d="M190.964 127.176H150.814V142.403H190.964V127.176Z" fill="#6C63FF"/>
<path opacity="0.3" d="M251.605 125.766H211.455V140.993H251.605V125.766Z" fill="#6C63FF"/>
<path d="M289.264 7.51758L262.682 33.2036L292.033 54.7053" stroke="#3F3D56" stroke-miterlimit="10"/>
<path d="M222.531 33.2038L183.626 64.5747" stroke="#3F3D56" stroke-miterlimit="10"/>
<path d="M170.889 127.164L183.626 79.8018L231.53 125.765" stroke="#3F3D56" stroke-miterlimit="10"/>
<path opacity="0.3" d="M58.6014 15.6869H18.4507V30.9142H58.6014V15.6869Z" fill="#6C63FF"/>
<path opacity="0.3" d="M61.3705 62.7785H21.2197V78.0057H61.3705V62.7785Z" fill="#6C63FF"/>
<path d="M18.4507 23.2045L-8.13171 48.8905L21.2195 70.3922" stroke="#3F3D56" stroke-miterlimit="10"/>
<path d="M61.3705 70.3922H106.904" stroke="#3F3D56" stroke-miterlimit="10"/>
<path d="M133.67 62.5989H86.4642V77.7798H133.67V62.5989Z" fill="#6C63FF"/>
<path d="M133.731 70.1893H163.551" stroke="#3F3D56" stroke-miterlimit="10"/>
<path d="M86.238 70.1894L58.6014 23.2047" stroke="#3F3D56" stroke-miterlimit="10"/>
<path d="M223.362 411C344.112 411 442 388.797 442 361.409C442 334.021 344.112 311.818 223.362 311.818C102.611 311.818 4.72327 334.021 4.72327 361.409C4.72327 388.797 102.611 411 223.362 411Z" fill="#F2F2F2"/>
<path d="M324.722 198.167L303.402 306.948H298.787L298.279 306.145L296.809 303.815L315.271 202.195L318.074 201L324.722 198.167Z" fill="#47465A"/>
<path opacity="0.1" d="M318.074 201L298.279 306.145L296.809 303.815L315.271 202.195L318.074 201Z" fill="black"/>
<path d="M356.813 346.343L351.331 348.142L349.999 348.581L348.24 344.552L318.074 204.416L321.21 203.7L327.8 202.195L356.813 346.343Z" fill="#47465A"/>
<path opacity="0.1" d="M351.331 348.142L349.999 348.581L348.24 344.552L318.074 204.416L321.21 203.7L351.331 348.142Z" fill="black"/>
<path d="M95.4761 198.167L90.6407 339.18L85.0992 340.433L84.7061 340.523L83.1672 337.613L86.2446 199.509L89.2051 199.079L95.4761 198.167Z" fill="#47465A"/>
<path opacity="0.1" d="M89.2051 199.079L85.0992 340.433L84.7061 340.523L83.1672 337.613L86.2446 199.509L89.2051 199.079Z" fill="black"/>
<path d="M124.269 389.094L118.537 390.101L117.895 390.213L116.137 386.408L88.2227 202.195L89.0272 201.947L93.2782 200.628L124.269 389.094Z" fill="#47465A"/>
<path opacity="0.1" d="M118.537 390.101L117.895 390.213L116.137 386.408L88.2227 202.195L89.0272 201.947L118.537 390.101Z" fill="black"/>
<path d="M245.596 186.751L266.939 214.523C267.67 215.475 268.63 216.219 269.725 216.684C270.821 217.149 272.015 217.32 273.194 217.179L360.807 206.73C362.492 206.529 364.045 205.705 365.173 204.415C366.3 203.124 366.923 201.457 366.923 199.73V179.141L245.596 186.751Z" fill="#7A799C"/>
<path d="M317.469 191.228H323.404V199.95C323.404 200.545 323.171 201.116 322.758 201.538C322.344 201.959 321.784 202.195 321.199 202.195H319.674C319.09 202.195 318.529 201.959 318.115 201.538C317.702 201.116 317.469 200.545 317.469 199.95V191.228Z" fill="#47465A"/>
<path d="M88.2227 204.434L109.565 232.206C110.297 233.157 111.256 233.902 112.352 234.367C113.447 234.832 114.642 235.003 115.821 234.862L203.434 224.413C205.119 224.212 206.672 223.388 207.8 222.097C208.927 220.807 209.55 219.14 209.55 217.412V196.823L88.2227 204.434Z" fill="#7A799C"/>
<path d="M160.096 208.91H166.03V217.632C166.03 218.228 165.798 218.799 165.384 219.22C164.971 219.641 164.41 219.878 163.825 219.878H162.301C161.716 219.878 161.155 219.641 160.742 219.22C160.328 218.799 160.096 218.228 160.096 217.632V208.91H160.096Z" fill="#47465A"/>
<path d="M112.743 218.499L373.35 187.585C374.168 187.488 374.935 187.125 375.535 186.549C376.134 185.974 376.536 185.216 376.68 184.39C376.824 183.563 376.702 182.711 376.333 181.961C375.964 181.21 375.367 180.601 374.63 180.223L328.012 156.348C318.831 151.646 308.521 149.711 298.296 150.773L66.7671 174.814C65.9393 174.903 65.1526 175.226 64.4971 175.749C63.8416 176.271 63.3438 176.971 63.0607 177.768C62.7776 178.565 62.7207 179.427 62.8965 180.256C63.0723 181.084 63.4737 181.846 64.0547 182.453L91.0163 210.623C93.8066 213.538 97.2157 215.764 100.982 217.129C104.748 218.494 108.771 218.963 112.743 218.499Z" fill="#47465A"/>
<path d="M372.198 270.464C372.198 270.464 369.341 284.117 368.022 287.923C367.376 289.785 364.255 291.488 360.795 292.791C357.728 293.955 354.552 294.798 351.318 295.309C347.581 295.757 299.666 288.146 276.368 282.998C260.672 279.531 258.643 275.554 258.991 273.329C259.102 272.666 259.414 272.056 259.883 271.583C259.883 271.583 282.961 255.691 291.094 248.081C299.226 240.47 315.271 246.514 332.855 249.647C350.439 252.781 372.198 270.464 372.198 270.464Z" fill="#47465A"/>
<path d="M399.233 181.827C399.233 181.827 410.003 188.989 373.737 203.762C373.737 203.762 354.025 215.08 356.591 261.704C356.713 263.801 357.34 265.834 358.416 267.626C362.158 273.893 370.176 289.758 356.813 291.728V295.309C356.813 295.309 380.99 282.998 383.628 272.478C386.265 261.958 395.057 203.538 399.453 198.166C403.849 192.794 406.706 184.289 399.233 181.827Z" fill="#47465A"/>
<path opacity="0.1" d="M360.796 292.791C357.728 293.955 354.553 294.798 351.318 295.309C347.581 295.757 299.666 288.146 276.368 282.998C260.672 279.531 258.643 275.554 258.991 273.329C269.308 276.921 302.809 288.323 314.832 289.266C329.119 290.385 356.413 293.496 358.481 291.381C359.277 290.566 360.092 291.426 360.796 292.791Z" fill="black"/>
<path d="M235.266 385.961L256.146 288.818C256.146 288.818 259.883 278.522 268.455 278.969L276.368 282.998C276.368 282.998 263.18 279.865 260.322 290.161C257.465 300.457 239.222 385.961 239.222 385.961H235.266Z" fill="#47465A"/>
<path d="M285.379 341.642L293.731 282.327H297.468L288.896 341.642H285.379Z" fill="#47465A"/>
<path d="M365.385 399.614L357.472 306.948C357.472 306.948 357.472 299.114 361.428 295.309C365.385 291.504 378.157 280.649 378.157 280.649C378.157 280.649 381.43 279.865 384.067 287.475C386.705 295.085 404.948 371.188 404.948 371.188L401.431 372.755L378.792 285.013L363.187 300.01C363.187 300.01 360.11 305.605 361.648 310.753C363.187 315.902 368.901 399.614 368.901 399.614H365.385Z" fill="#47465A"/>
<path d="M340.988 293.071L360.769 298.89L365.165 294.638L353.736 293.071H340.988Z" fill="#47465A"/>
<path d="M165.131 129.697L168.338 178.693L238.453 171.754L235.663 123.859C235.625 123.217 235.462 122.59 235.183 122.014C234.904 121.437 234.515 120.924 234.038 120.503C233.561 120.082 233.006 119.763 232.406 119.564C231.806 119.365 231.173 119.29 230.544 119.344L169.454 124.577C168.218 124.683 167.072 125.279 166.264 126.236C165.455 127.194 165.048 128.437 165.131 129.697Z" fill="#7A799C"/>
<path d="M261.971 185.855L192.076 193.62L189.438 193.913L168.998 180.484V177.574L238.453 171.204L261.971 185.855Z" fill="#7A799C"/>
<path opacity="0.1" d="M192.076 193.62L189.438 193.913L168.998 180.484V177.878L192.076 193.62Z" fill="black"/>
<path d="M169.877 129.226L172.295 172.873L233.837 167.054L231.639 124.526L169.877 129.226Z" fill="#9493B6"/>
<path opacity="0.1" d="M206.583 184.96L214.056 190.109L236.695 187.87L229.002 182.946L206.583 184.96Z" fill="black"/>
<path d="M176.031 178.693L185.482 185.855L245.926 180.036L235.156 172.873L176.031 178.693Z" fill="#9493B6"/>
<path d="M327.91 112.551H283.291V157.989H327.91V112.551Z" fill="#FF6584"/>
<path opacity="0.1" d="M327.91 112.551H283.291V157.989H327.91V112.551Z" fill="black"/>
<path d="M298.657 133.578C298.657 133.578 304.951 150.938 298.657 154.143C292.363 157.348 321.211 154.143 321.211 154.143L329.342 147.466C329.342 147.466 310.983 142.125 313.606 129.839C316.229 117.554 298.657 133.578 298.657 133.578Z" fill="#FBBEBE"/>
<path opacity="0.1" d="M298.657 133.578C298.657 133.578 304.951 150.938 298.657 154.143C292.363 157.348 321.211 154.143 321.211 154.143L329.342 147.466C329.342 147.466 310.983 142.125 313.606 129.839C316.229 117.554 298.657 133.578 298.657 133.578Z" fill="black"/>
<path d="M246.992 307.711C246.992 307.711 270.596 341.629 266.662 350.977C262.728 360.324 264.826 366.2 256.958 369.405C249.09 372.61 246.992 378.485 253.811 378.218C260.63 377.951 269.546 376.082 270.858 373.678C272.169 371.274 275.316 359.79 279.775 358.188C284.233 356.585 292.625 350.442 286.593 342.964C280.561 335.486 265.363 307.942 266.537 305.156C267.711 302.369 246.992 307.711 246.992 307.711Z" fill="#FBBEBE"/>
<path d="M296.297 240.675C296.297 240.675 247.517 243.88 234.928 255.898C222.34 267.917 245.943 312.785 248.566 313.319C251.188 313.853 271.645 311.717 270.858 305.841C270.071 299.966 256.171 275.929 256.171 275.929C256.171 275.929 274.267 269.252 284.233 267.65C294.199 266.047 305.214 258.569 305.214 258.569L296.297 240.675Z" fill="#9493B6"/>
<path d="M274.005 233.197C274.005 233.197 274.792 262.842 282.135 263.911C289.478 264.979 282.135 241.209 282.135 241.209L281.873 232.129L274.005 233.197Z" fill="#FBBEBE"/>
<path d="M296.297 155.478C296.297 155.478 282.659 151.472 280.037 162.155C277.414 172.838 276.628 209.695 276.628 209.695L271.907 239.073C271.907 239.073 280.561 236.402 282.397 237.737L293.412 223.582L296.297 155.478Z" fill="#6C63FF"/>
<path opacity="0.1" d="M296.297 155.478C296.297 155.478 282.659 151.472 280.037 162.155C277.414 172.838 276.628 209.695 276.628 209.695L271.907 239.073C271.907 239.073 280.561 236.402 282.397 237.737L293.412 223.582L296.297 155.478Z" fill="black"/>
<path d="M314.931 313.398C314.931 313.398 324.096 331.747 329.604 331.48C335.111 331.213 340.356 327.741 342.979 338.691C345.602 349.641 342.454 346.703 345.602 353.113C348.749 359.523 349.273 370.74 343.241 373.411C337.209 376.082 331.702 376.349 331.44 373.411C331.177 370.473 336.685 370.473 330.391 360.057C324.096 349.641 310.721 330.679 305.214 328.809C299.706 326.94 314.931 313.398 314.931 313.398Z" fill="#FBBEBE"/>
<path d="M338.783 229.725C338.783 229.725 357.665 261.774 345.339 271.122C333.013 280.469 296.297 298.363 296.297 298.363C296.297 298.363 315.966 311.984 317.015 316.524C318.064 321.064 307.574 333.35 303.902 333.617C300.231 333.884 289.478 321.331 277.939 318.127C266.399 314.922 259.318 291.953 271.907 283.407C284.495 274.861 296.297 260.706 296.297 260.706L292.627 240.144L338.783 229.725Z" fill="#9493B6"/>
<path d="M322.415 122.847C322.415 134.205 310.99 143.594 299.837 143.594C294.482 143.594 289.345 141.427 285.558 137.57C281.771 133.714 279.643 128.483 279.643 123.029C279.643 117.575 281.771 112.344 285.558 108.488C289.345 104.631 294.482 102.464 299.837 102.464C310.99 102.464 322.415 111.49 322.415 122.847Z" fill="#FBBEBE"/>
<path d="M304.952 152.541C304.952 152.541 323.047 144.528 323.047 143.46C323.047 142.392 333.538 145.864 335.898 148C338.258 150.137 339.57 149.87 341.143 154.143C342.717 158.416 333.275 198.21 333.275 198.21C333.275 198.21 338.521 228.924 341.405 231.862C344.29 234.799 318.064 239.073 318.064 239.073C318.064 239.073 300.755 242.278 297.871 243.613C294.986 244.948 289.74 246.818 290.79 243.613C291.839 240.408 296.297 238.004 288.691 233.998C288.691 233.998 291.314 220.912 288.691 215.036C286.069 209.16 274.005 187.794 283.709 172.304C293.412 156.814 297.871 151.205 297.871 151.205C297.871 151.205 301.28 154.143 304.952 152.541Z" fill="#6C63FF"/>
<path d="M310.721 225.452C310.721 225.452 290.265 234.691 284.102 235.547C277.939 236.402 259.318 241.209 269.547 245.482C279.775 249.756 295.248 243.346 295.248 243.346L317.015 233.998L310.721 225.452Z" fill="#FBBEBE"/>
<path opacity="0.1" d="M332.745 151.721C332.745 151.721 340.299 148 342.397 161.087C344.495 174.174 351.838 215.57 342.397 221.713C332.956 227.856 311.188 237.737 311.188 237.737C311.188 237.737 298.337 228.924 304.369 225.719C310.401 222.514 324.826 213.434 326.924 210.229C329.022 207.024 331.142 171.251 327.47 165.375C323.798 159.499 332.745 151.721 332.745 151.721Z" fill="black"/>
<path d="M332.226 148.535C332.226 148.535 342.717 148 344.815 161.087C346.913 174.174 354.256 215.57 344.815 221.713C335.373 227.856 313.606 237.737 313.606 237.737C313.606 237.737 300.755 228.924 306.787 225.719C312.819 222.514 327.243 213.434 329.342 210.229C331.44 207.024 327.768 173.64 324.096 167.764C320.425 161.888 332.226 148.535 332.226 148.535Z" fill="#6C63FF"/>
<path d="M294.863 88.4108C291.644 88.8571 288.19 90.0564 286.57 92.9248C285.777 94.3284 285.521 95.9749 284.91 97.4698C283.225 101.595 279.132 104.059 276.178 107.362C272.327 111.667 270.414 118.153 272.686 123.497C273.565 125.567 274.993 127.34 276.076 129.306C279.098 134.793 279.259 141.383 279.345 147.673L279.514 160.041C279.54 161.93 279.56 163.857 279.002 165.658C278.444 167.459 277.197 169.146 275.428 169.714C277.38 170.403 279.501 170.408 281.455 169.729C283.41 169.049 285.085 167.724 286.215 165.963C286.456 167.521 286.319 169.115 285.814 170.606C285.31 172.097 284.454 173.439 283.322 174.515C288.13 173.362 292.162 169.8 294.702 165.486C297.242 161.172 298.42 156.154 298.948 151.152C299.227 148.507 299.326 145.772 298.505 143.246C297.927 141.467 296.919 139.872 295.962 138.271C293.494 134.145 291.272 129.757 290.477 124.994C289.682 120.232 290.48 115.006 293.517 111.295C294.683 109.861 296.151 108.713 297.813 107.937C299.475 107.161 301.287 106.777 303.115 106.813C304.942 106.885 306.721 107.434 308.281 108.406C309.841 109.379 311.129 110.743 312.023 112.367C312.725 113.712 313.724 115.535 315.145 115.062C315.408 114.949 315.665 114.82 315.915 114.677C317.5 113.943 319.301 115.392 320 117.017C322.205 122.141 318.143 127.735 317.723 133.314C317.332 138.503 320.173 143.397 323.569 147.286C329.435 153.976 337.097 158.77 345.608 161.075C344.362 160.756 343.245 160.049 342.411 159.053C345.872 159.194 349.336 158.898 352.725 158.172C349.035 155.34 345.319 152.484 342.238 148.977C339.157 145.47 336.717 141.227 336.053 136.57C335.161 130.321 337.447 123.554 334.834 117.827C332.445 112.591 326.52 109.665 324.356 104.329C322.158 98.9085 320.733 94.1995 314.914 91.8398C308.562 89.2645 301.725 87.4598 294.863 88.4108Z" fill="#D7BD96"/>
</svg>
